<svg xmlns="http://www.w3.org/2000/svg" width="11.557" height="13.208" viewBox="0 0 11.557 13.208"><defs><style>.a{fill:rgba(97,97,97,0.5);}</style></defs><path class="a" d="M3.818,7.429H2.786a.31.31,0,0,1-.31-.31V6.088a.31.31,0,0,1,.31-.31H3.818a.31.31,0,0,1,.31.31V7.12A.31.31,0,0,1,3.818,7.429ZM6.6,7.12V6.088a.31.31,0,0,0-.31-.31H5.262a.31.31,0,0,0-.31.31V7.12a.31.31,0,0,0,.31.31H6.294A.31.31,0,0,0,6.6,7.12Zm2.476,0V6.088a.31.31,0,0,0-.31-.31H7.739a.31.31,0,0,0-.31.31V7.12a.31.31,0,0,0,.31.31H8.771A.31.31,0,0,0,9.08,7.12ZM6.6,9.6V8.564a.31.31,0,0,0-.31-.31H5.262a.31.31,0,0,0-.31.31V9.6a.31.31,0,0,0,.31.31H6.294A.31.31,0,0,0,6.6,9.6Zm-2.476,0V8.564a.31.31,0,0,0-.31-.31H2.786a.31.31,0,0,0-.31.31V9.6a.31.31,0,0,0,.31.31H3.818A.31.31,0,0,0,4.127,9.6Zm4.953,0V8.564a.31.31,0,0,0-.31-.31H7.739a.31.31,0,0,0-.31.31V9.6a.31.31,0,0,0,.31.31H8.771A.31.31,0,0,0,9.08,9.6Zm2.476-6.707v9.08a1.239,1.239,0,0,1-1.238,1.238H1.238A1.239,1.239,0,0,1,0,11.969V2.889A1.239,1.239,0,0,1,1.238,1.651H2.476V.31A.31.31,0,0,1,2.786,0H3.818a.31.31,0,0,1,.31.31V1.651h3.3V.31A.31.31,0,0,1,7.739,0H8.771a.31.31,0,0,1,.31.31V1.651h1.238A1.239,1.239,0,0,1,11.557,2.889Zm-1.238,8.925V4.127H1.238v7.687a.155.155,0,0,0,.155.155h8.771A.155.155,0,0,0,10.318,11.815Z"/></svg>