<svg xmlns="http://www.w3.org/2000/svg" width="48" height="40.581" viewBox="0 0 48 40.581"><defs><style>.a{fill:#0aa9fb;}</style></defs><g transform="translate(0 -39.568)"><g transform="translate(0 62.394)"><g transform="translate(0 0)"><path class="a" d="M28.646,295.015H25.008a.937.937,0,0,0,0,1.875h3.637a1.018,1.018,0,1,1,0,2.036H18.854a4.926,4.926,0,0,1-3.8-1.781l-2.342-2.815a6.792,6.792,0,0,0-5.042-2.451v-5.538h3.451a6.5,6.5,0,0,1,4.538,1.833l5.054,4.878a.921.921,0,0,1-1.262,1.341l-3.968-3.637a.937.937,0,1,0-1.267,1.382l3.968,3.637a2.8,2.8,0,0,0,3.831-4.072l-5.054-4.878a8.368,8.368,0,0,0-5.84-2.359H7.491a2.327,2.327,0,0,0-2.142-1.422H.937a.937.937,0,0,0-.937.937v6.855a.937.937,0,0,0,1.875,0v-5.917H5.35a.449.449,0,0,1,.449.449v7.513a.449.449,0,0,1-.449.449H4.376a.937.937,0,0,0,0,1.875H5.35A2.327,2.327,0,0,0,7.5,293.75a4.925,4.925,0,0,1,3.769,1.78l2.342,2.815a6.8,6.8,0,0,0,5.238,2.456h9.792a2.893,2.893,0,0,0,0-5.786Z" transform="translate(0 -283.046)"/></g></g><g transform="translate(16.462 39.568)"><g transform="translate(0 0)"><path class="a" d="M206.191,48.227a.937.937,0,0,0-.937.937v6.284h-3.475A.449.449,0,0,1,201.33,55V47.486a.449.449,0,0,1,.449-.449h.9a.937.937,0,0,0,0-1.875h-.9a2.327,2.327,0,0,0-2.155,1.456,4.925,4.925,0,0,1-3.769-1.78l-2.342-2.814a6.8,6.8,0,0,0-5.239-2.456h-9.791a2.893,2.893,0,1,0,0,5.785h4a.937.937,0,1,0,0-1.875h-4a1.018,1.018,0,1,1,0-2.036h9.792a4.926,4.926,0,0,1,3.8,1.78l2.342,2.814a6.792,6.792,0,0,0,5.042,2.451v5.538H196a6.5,6.5,0,0,1-4.538-1.833l-5.054-4.878a.921.921,0,0,1,1.262-1.341l3.968,3.637a.937.937,0,1,0,1.267-1.382l-3.968-3.637a2.8,2.8,0,0,0-3.831,4.072l5.054,4.878A8.368,8.368,0,0,0,196,55.9h3.634a2.327,2.327,0,0,0,2.142,1.422h4.413a.937.937,0,0,0,.937-.937V49.165A.937.937,0,0,0,206.191,48.227Z" transform="translate(-175.59 -39.568)"/></g></g><g transform="translate(28.464 70.898)"><path class="a" d="M305.419,374.3a.947.947,0,1,0-.49,1.25l.02-.009A.939.939,0,0,0,305.419,374.3Z" transform="translate(-303.617 -373.752)"/></g><g transform="translate(30.9 69.492)"><path class="a" d="M331.3,359.137a.941.941,0,1,0-.2,1.315l.012-.009A.933.933,0,0,0,331.3,359.137Z" transform="translate(-329.603 -358.757)"/></g><g transform="translate(25.783 71.759)"><g transform="translate(0 0)"><path class="a" d="M276.879,383.683a.946.946,0,1,0-.749,1.116l.028-.006A.936.936,0,0,0,276.879,383.683Z" transform="translate(-275.016 -382.94)"/></g></g><g transform="translate(32.983 67.592)"><g transform="translate(0 0)"><path class="a" d="M353.391,338.728a.937.937,0,0,0-1.324.068l-.02.022a.937.937,0,1,0,1.344-.091Zm-.523.79-.1-.094.113.1Z" transform="translate(-351.819 -338.487)"/></g></g><g transform="translate(35.729 62.712)"><g transform="translate(0 0)"><path class="a" d="M382.321,286.483a.941.941,0,1,0,.622,1.179l0-.013A.935.935,0,0,0,382.321,286.483Z" transform="translate(-381.109 -286.443)"/></g></g><g transform="translate(36.279 57.134)"><g transform="translate(0 0)"><path class="a" d="M388.841,227.72c0-.012,0-.024-.007-.036a.944.944,0,1,0,.007.036Z" transform="translate(-386.979 -226.939)"/></g></g><g transform="translate(36.261 59.945)"><g transform="translate(0 0)"><path class="a" d="M387.8,256.927a.938.938,0,0,0-1.016.851c0,.009,0,.028,0,.037a.937.937,0,0,0,.881.991l.056,0a.942.942,0,0,0,.082-1.881Z" transform="translate(-386.783 -256.923)"/></g></g><g transform="translate(34.618 65.298)"><path class="a" d="M370.664,314.146a.937.937,0,0,0-1.278.353l-.013.023a.939.939,0,0,0,.824,1.389.93.93,0,0,0,.82-.487l-.815-.463.816.462A.937.937,0,0,0,370.664,314.146Z" transform="translate(-369.259 -314.024)"/></g><g transform="translate(17.24 47.049)"><g transform="translate(0 0)"><path class="a" d="M185.679,119.888a.937.937,0,0,0-1.258-.419l-.008,0a.937.937,0,1,0,1.266.415Z" transform="translate(-183.898 -119.37)"/></g></g><g transform="translate(19.874 46.07)"><g transform="translate(0 0)"><path class="a" d="M213.847,109.635a.937.937,0,0,0-1.132-.69l-.022.006a.937.937,0,1,0,1.154.685Z" transform="translate(-211.987 -108.918)"/></g></g><g transform="translate(14.869 48.57)"><g transform="translate(0 0)"><path class="a" d="M160.273,135.944a.939.939,0,0,0-1.318-.143l.581.735-.584-.733a.937.937,0,0,0,1.168,1.467l.012-.01A.936.936,0,0,0,160.273,135.944Z" transform="translate(-158.599 -135.595)"/></g></g><g transform="translate(10.358 55.556)"><g transform="translate(0 0)"><path class="a" d="M111.673,210.14a.937.937,0,0,0-1.151.658l-.009.035a.937.937,0,1,0,1.16-.693Z" transform="translate(-110.487 -210.106)"/></g></g><g transform="translate(9.955 58.342)"><g transform="translate(0 0)"><path class="a" d="M107.183,239.826a.938.938,0,0,0-.99.882c0,.012,0,.024,0,.036a.937.937,0,0,0,.909.964h.028a.942.942,0,0,0,.054-1.882Z" transform="translate(-106.191 -239.824)"/></g></g><g transform="translate(11.347 52.92)"><g transform="translate(0 0)"><path class="a" d="M122.414,182.1a.937.937,0,0,0-1.266.395l-.015.03a.937.937,0,1,0,1.281-.425Z" transform="translate(-121.037 -181.989)"/></g></g><g transform="translate(12.876 50.556)"><g transform="translate(0 0)"><path class="a" d="M138.881,156.99a.938.938,0,0,0-1.32.122l-.019.024a.937.937,0,1,0,1.339-.146Z" transform="translate(-137.339 -156.773)"/></g></g><g transform="translate(10.147 61.151)"><path class="a" d="M110.09,270.563a.937.937,0,0,0-1.845.331l0,.009a.932.932,0,0,0,.919.768.939.939,0,0,0,.925-1.108Z" transform="translate(-108.23 -269.791)"/></g><g transform="translate(16.553 54.808)"><path class="a" d="M187.232,202.125a4.341,4.341,0,0,0-3.156,1.352,4.354,4.354,0,1,0-5.942,6.345l.018.015,5.342,4.229a.937.937,0,0,0,1.166,0l5.568-4.435a.927.927,0,0,0,.078-.069,4.353,4.353,0,0,0-3.074-7.435Zm1.784,6.073-4.942,3.936-4.748-3.759a2.478,2.478,0,1,1,3.884-2.845.937.937,0,0,0,1.732,0,2.478,2.478,0,1,1,4.074,2.668Z" transform="translate(-176.566 -202.125)"/></g><g transform="translate(0.003 72.683)"><circle class="a" cx="0.934" cy="0.934" r="0.934"/></g><g transform="translate(46.128 45.166)"><g transform="translate(0 0)"><circle class="a" cx="0.934" cy="0.934" r="0.934"/></g></g></g></svg>