<svg xmlns="http://www.w3.org/2000/svg" width="48" height="27.2" viewBox="0 0 48 27.2"><defs><style>.a{fill:#f88227;}</style></defs><g transform="translate(0 -104)"><g transform="translate(14.031 119.867)"><g transform="translate(0 0)"><rect class="a" width="2" height="2"/></g></g><g transform="translate(14.031 122.667)"><g transform="translate(0 0)"><rect class="a" width="2" height="2"/></g></g><g transform="translate(14.031 126.2)"><rect class="a" width="2" height="2"/></g><g transform="translate(14.031 117.1)"><rect class="a" width="2" height="1"/></g><g transform="translate(14.031 113.333)"><g transform="translate(0 0)"><rect class="a" width="2" height="2"/></g></g><g transform="translate(14.031 110.533)"><g transform="translate(0 0)"><rect class="a" width="2" height="2"/></g></g><g transform="translate(14.031 107)"><rect class="a" width="2" height="2"/></g><g transform="translate(3 107)"><rect class="a" width="2" height="2"/></g><g transform="translate(42.824 107)"><rect class="a" width="2" height="2"/></g><g transform="translate(42.824 126.2)"><rect class="a" width="2" height="2"/></g><g transform="translate(3 126.2)"><rect class="a" width="2" height="2"/></g><g transform="translate(0 104)"><g transform="translate(0 0)"><path class="a" d="M47.2,113.6a.8.8,0,0,0,.8-.8v-8a.8.8,0,0,0-.8-.8H.8a.8.8,0,0,0-.8.8v8a.8.8,0,0,0,.8.8,4,4,0,0,1,0,8,.8.8,0,0,0-.8.8v8a.8.8,0,0,0,.8.8H47.2a.8.8,0,0,0,.8-.8v-8a.8.8,0,0,0-.8-.8,4,4,0,0,1,0-8Zm-5.548,4.8a5.6,5.6,0,0,0,4.748,4.748V129.6H1.6v-6.457a5.6,5.6,0,0,0,0-11.086V105.6H46.4v6.457A5.6,5.6,0,0,0,41.652,118.4Z" transform="translate(0 -104)"/></g></g><g transform="translate(20.588 109.486)"><g transform="translate(0 0)"><path class="a" d="M211.412,160a3.412,3.412,0,1,0,3.412,3.412A3.412,3.412,0,0,0,211.412,160Zm0,5.118a1.706,1.706,0,1,1,1.706-1.706A1.706,1.706,0,0,1,211.412,165.118Z" transform="translate(-208 -160)"/></g></g><g transform="translate(30.091 118.89)"><g transform="translate(0 0)"><path class="a" d="M307.412,256a3.412,3.412,0,1,0,3.412,3.412A3.412,3.412,0,0,0,307.412,256Zm0,5.118a1.706,1.706,0,1,1,1.706-1.706A1.706,1.706,0,0,1,307.412,261.118Z" transform="translate(-304 -256)"/></g></g><g transform="translate(21.244 110.172)"><g transform="translate(0 0)"><rect class="a" width="19.3" height="1.706" transform="translate(0 13.647) rotate(-45)"/></g></g></g></svg>