<svg xmlns="http://www.w3.org/2000/svg" width="47.993" height="47.998" viewBox="0 0 47.993 47.998"><defs><style>.a{fill:#f25c5c;}</style></defs><g transform="translate(-1.007 -1)"><path class="a" d="M47.276,17.242l-5.243-3.5V11.7a2.281,2.281,0,0,0,1.406-2.954h.142A2.325,2.325,0,0,0,45.9,6.419v-3.1A2.325,2.325,0,0,0,43.581,1H28.1a2.325,2.325,0,0,0-2.323,2.323v3.1A2.325,2.325,0,0,0,28.1,8.742h.142A2.281,2.281,0,0,0,29.646,11.7v2.051l-5.243,3.5a3.863,3.863,0,0,0-1.724,3.221v2.509A9.281,9.281,0,0,0,6.245,31.356,9.285,9.285,0,1,0,18.039,44.835,9.258,9.258,0,0,0,32.68,45.9H45.129A3.875,3.875,0,0,0,49,42.031V20.463a3.865,3.865,0,0,0-1.724-3.221ZM27.323,6.419v-3.1a.775.775,0,0,1,.774-.774h.774v3.1H30.42v-3.1h1.548v3.1h1.548v-3.1h1.548v3.1h1.548v-3.1h1.548v3.1H39.71v-3.1h1.548v3.1h1.548v-3.1h.774a.775.775,0,0,1,.774.774v3.1a.775.775,0,0,1-.774.774H28.1A.775.775,0,0,1,27.323,6.419ZM41.258,8.742a.774.774,0,0,1,0,1.548H30.42a.774.774,0,1,1,0-1.548Zm-16,9.789,5.933-3.956V11.838h9.29v2.737l5.933,3.955a2.3,2.3,0,0,1,.842,1.049H33.517v15a9.358,9.358,0,0,0-3.1-2.909V19.58h-6a2.3,2.3,0,0,1,.842-1.049Zm22.191,2.6v18.58H35.065V21.128Zm-23.225,0h4.645V30.96a9.109,9.109,0,0,0-5.007-.339,9.251,9.251,0,0,0,.362-2.525Zm-9.29-.774a7.751,7.751,0,0,1,7.7,6.968H7.234A7.751,7.751,0,0,1,14.937,20.354Zm-7.7,8.516h15.4a7.629,7.629,0,0,1-.627,2.356,9.331,9.331,0,0,0-3.968,3.357A9.287,9.287,0,0,0,7.686,30.795,7.586,7.586,0,0,1,7.237,28.87Zm-2.42,5.364a7.751,7.751,0,0,1,10.373-.519L4.3,44.607a7.752,7.752,0,0,1,.519-10.373ZM15.766,45.183A7.754,7.754,0,0,1,5.392,45.7L16.285,34.809A7.753,7.753,0,0,1,15.766,45.183ZM18.9,36.208a7.706,7.706,0,0,1,11.774-2.49L19.8,44.593a7.731,7.731,0,0,1-.9-1.383,9.345,9.345,0,0,0,0-7ZM25.775,47.45a7.723,7.723,0,0,1-4.885-1.762L31.765,34.813A7.736,7.736,0,0,1,25.775,47.45Zm19.354-3.1H33.808a9.2,9.2,0,0,0,1.117-3.1H47.452v.774A2.325,2.325,0,0,1,45.129,44.353Z" transform="translate(0)"/><path class="a" d="M49.323,38.29h4.645V35.968H56.29V31.323H53.968V29H49.323v2.323H47v4.645h2.323Zm-.774-3.871V32.871h2.323V30.548h1.548v2.323h2.323v1.548H52.419v2.323H50.871V34.419Z" transform="translate(-10.387 -6.323)"/><path class="a" d="M47,43h9.29v1.548H47Z" transform="translate(-10.387 -9.485)"/><path class="a" d="M47,47h1.548v1.548H47Z" transform="translate(-10.387 -10.388)"/><path class="a" d="M51,47h6.193v1.548H51Z" transform="translate(-11.29 -10.388)"/><path class="a" d="M11.193,44.548V43A6.2,6.2,0,0,0,5,49.193H6.548A4.65,4.65,0,0,1,11.193,44.548Z" transform="translate(-0.902 -9.485)"/></g></svg>