<svg xmlns="http://www.w3.org/2000/svg" width="56" height="56" viewBox="0 0 56 56"><defs><style>.a{fill:#fee;}.b{fill:#fff;}.c{fill:#f25c5c;}.d{fill:#eff3f3;}.e{fill:#f2a0a0;}</style></defs><g transform="translate(0 -0.001)"><path class="a" d="M181.77,29.826A19.826,19.826,0,1,1,161.944,10,19.826,19.826,0,0,1,181.77,29.826Zm0,0" transform="translate(-126.871 -8.897)"/><path class="b" d="M220.664,71.039A14.539,14.539,0,1,1,206.125,56.5,14.539,14.539,0,0,1,220.664,71.039Zm0,0" transform="translate(-170.889 -50.274)"/><path class="c" d="M28.835,337.449,17.709,348.574a4.515,4.515,0,0,1-6.386-6.386l11.126-11.126Zm0,0" transform="translate(-8.899 -294.998)"/><path class="d" d="M134.281,304.876l4.642-4.642,3.9,3.895-4.642,4.642Zm0,0" transform="translate(-119.613 -267.438)"/><path class="e" d="M197.227,77.782a15.641,15.641,0,1,0-15.641-15.641A15.659,15.659,0,0,0,197.227,77.782Zm0-29.078A13.437,13.437,0,1,1,183.79,62.141,13.453,13.453,0,0,1,197.227,48.7Zm0,0" transform="translate(-161.991 -41.376)"/><path class="e" d="M35.226,41.551A20.8,20.8,0,1,0,18.086,32.5l-3.4,3.4-.463-.463a1.094,1.094,0,0,0-1.547,0L1.634,46.482A5.576,5.576,0,1,0,9.52,54.368L20.564,43.323a1.095,1.095,0,0,0,0-1.547l-.463-.463,3.4-3.4a20.656,20.656,0,0,0,11.726,3.635Zm0-39.362A18.587,18.587,0,1,1,16.638,20.776,18.608,18.608,0,0,1,35.226,2.188ZM7.973,52.821A3.389,3.389,0,0,1,3.18,48.028L13.451,37.757l.463.462h0l4.329,4.329ZM18.554,39.766l-2.32-2.32,3.194-3.194a21.009,21.009,0,0,0,2.32,2.32Zm0,0" transform="translate(0)"/><path class="c" d="M280.411,113.92a1.1,1.1,0,0,0,1.1-1.1,2.67,2.67,0,1,1,3.97,2.333,4.616,4.616,0,0,0-2.4,4v1.572a1.1,1.1,0,0,0,2.2,0v-1.572a2.411,2.411,0,0,1,1.274-2.075,4.874,4.874,0,1,0-7.25-4.256,1.1,1.1,0,0,0,1.1,1.1Zm0,0" transform="translate(-248.806 -96.166)"/><path class="c" d="M314.641,252.891a1.1,1.1,0,1,0,.779.323A1.11,1.11,0,0,0,314.641,252.891Zm0,0" transform="translate(-279.256 -225.238)"/></g></svg>