<svg xmlns="http://www.w3.org/2000/svg" width="48" height="47.99" viewBox="0 0 48 47.99"><defs><style>.a{fill:#15a53b;}</style></defs><g transform="translate(-1 -1)"><path class="a" d="M23,51h1.548v3.1H23Z" transform="translate(-4.971 -11.298)"/><path class="a" d="M31,51h1.548v3.1H31Z" transform="translate(-6.779 -11.298)"/><path class="a" d="M48.061,12.781a2.706,2.706,0,0,0-3.737,0l-3.55,3.55a2.642,2.642,0,0,0,0,3.737l.454.454a2.642,2.642,0,0,0,3.737,0l3.55-3.549a2.643,2.643,0,0,0,0-3.738ZM43.87,19.427a1.12,1.12,0,0,1-1.548,0l-.454-.453a1.1,1.1,0,0,1,0-1.548L43.1,16.2l2,2Zm3.55-3.549-1.228,1.228-2-2,1.228-1.227a1.094,1.094,0,0,1,1.548,0l.454.454a1.1,1.1,0,0,1,0,1.548Z" transform="translate(-8.812 -2.493)"/><path class="a" d="M43.063,5A10.063,10.063,0,1,0,53.125,15.063,10.074,10.074,0,0,0,43.063,5Zm0,18.577a8.514,8.514,0,1,1,8.514-8.514A8.525,8.525,0,0,1,43.063,23.577Z" transform="translate(-7.231 -0.904)"/><path class="a" d="M35.832,1A13.105,13.105,0,0,0,24.107,8.075a12.764,12.764,0,0,0-1.426,5.31H1.774A.774.774,0,0,0,1,14.159V21.9a.774.774,0,0,0,.774.774h.774V48.216a.773.773,0,0,0,.774.774H40.476a.773.773,0,0,0,.774-.774V29.192L46.6,21.267a12.5,12.5,0,0,0,.954-13.193A13.105,13.105,0,0,0,35.832,1ZM2.548,14.933H22.709a12.654,12.654,0,0,0,2.258,6.192H2.548ZM4.1,41.25h9.288v6.192H4.1Zm10.837,6.192V35.058h6.192V47.442Zm7.74,0V35.058h6.192V47.442Zm7.74,0V41.25H39.7v6.192ZM39.7,39.7H30.414V34.284a.773.773,0,0,0-.774-.774H14.159a.773.773,0,0,0-.774.774V39.7H4.1V22.673H26.011l1.046,1.548H9.514A.774.774,0,0,0,8.74,25v6.192a.773.773,0,0,0,.774.774H32.284l2.907,4.3a.775.775,0,0,0,1.283,0l3.229-4.78ZM10.288,30.414V25.769H21.125v4.644Zm12.385-4.644H28.1l3.136,4.644H22.673ZM45.33,20.385l-9.5,14.064L26.323,20.37a10.977,10.977,0,0,1-.84-11.586,11.706,11.706,0,0,1,20.7,0,10.985,10.985,0,0,1-.851,11.6Z"/></g></svg>