<svg xmlns="http://www.w3.org/2000/svg" width="6" height="6.027" viewBox="0 0 6 6.027"><defs><style>.a{fill:#f2a0a0;}</style></defs><g transform="translate(0 0)"><path class="a" d="M6.656,4.542a.22.22,0,0,0-.219-.1A2.61,2.61,0,0,1,3.85,3.2,2.576,2.576,0,0,1,3.979.348.219.219,0,0,0,3.771,0a3.025,3.025,0,1,0,2.875,4.78A.218.218,0,0,0,6.656,4.542Zm-1.133.68A2.592,2.592,0,1,1,2.852.78,2.614,2.614,0,0,1,3.345.551a3.01,3.01,0,0,0,.128,2.876A3.041,3.041,0,0,0,5.959,4.9,2.607,2.607,0,0,1,5.523,5.222Z" transform="translate(-1.148 0)"/></g><g transform="translate(3.463 0.739)"><path class="a" d="M294.063,66.653l-.1-.145a.066.066,0,0,1-.008-.056l.051-.167a.066.066,0,0,0-.1-.074l-.145.1a.066.066,0,0,1-.056.008l-.167-.051a.066.066,0,0,0-.074.1l.1.145a.066.066,0,0,1,.008.056l-.051.167a.066.066,0,0,0,.1.074l.145-.1a.066.066,0,0,1,.056-.008l.167.051A.066.066,0,0,0,294.063,66.653Z" transform="translate(-293.456 -66.199)"/></g><g transform="translate(5.209 2.71)"><path class="a" d="M440.381,229.4l-.059-.021a.066.066,0,0,1-.04-.04l-.021-.059a.066.066,0,0,0-.124,0l-.021.059a.066.066,0,0,1-.04.04l-.059.021a.066.066,0,0,0,0,.124l.059.021a.066.066,0,0,1,.04.04l.021.059a.066.066,0,0,0,.124,0l.021-.059a.066.066,0,0,1,.04-.04l.059-.021A.066.066,0,0,0,440.381,229.4Z" transform="translate(-439.972 -229.233)"/></g><g transform="translate(5.709 0.342)"><path class="a" d="M484.987,30.684a.066.066,0,0,1-.04-.04.066.066,0,0,0-.124,0,.066.066,0,0,1-.04.04.066.066,0,0,0,0,.124.066.066,0,0,1,.04.04.066.066,0,0,0,.124,0,.066.066,0,0,1,.04-.04A.066.066,0,0,0,484.987,30.684Z" transform="translate(-484.74 -30.601)"/></g></svg>