<svg xmlns="http://www.w3.org/2000/svg" width="15" height="6" viewBox="0 0 15 6"><defs><style>.a{fill:#f25c5c;}</style></defs><g transform="translate(0 -277.307)"><g transform="translate(0 277.307)"><path class="a" d="M12,277.307H3a3,3,0,1,0,0,6h9a3,3,0,0,0,0-6Zm0,5.5H3a2.5,2.5,0,0,1,0-5h9a2.5,2.5,0,0,1,0,5Z" transform="translate(0 -277.307)"/></g><g transform="translate(1.596 279.985)"><path class="a" d="M54.127,372.505H52.8a1.065,1.065,0,0,1-1.064-1.064.266.266,0,1,0-.532,0,1.6,1.6,0,0,0,1.6,1.6h1.33a.266.266,0,1,0,0-.532Z" transform="translate(-51.201 -371.175)"/></g><g transform="translate(7.234 277.307)"><path class="a" d="M247.733,277.307a.258.258,0,0,0-.266.25v5.5a.267.267,0,0,0,.532,0v-5.5A.258.258,0,0,0,247.733,277.307Z" transform="translate(-247.467 -277.307)"/></g></g></svg>