<svg xmlns="http://www.w3.org/2000/svg" width="8.457" height="8.457" viewBox="0 0 8.457 8.457"><defs><style>.a{fill:#f2a0a0;stroke:#f2a0a0;stroke-width:0.1px;}</style></defs><path class="a" d="M8.357,4.179a.27.27,0,0,1-.27.27h-.4a.27.27,0,0,1,0-.539h.4A.27.27,0,0,1,8.357,4.179ZM4.179.944a.27.27,0,0,0,.27-.27V.27a.27.27,0,0,0-.539,0v.4A.27.27,0,0,0,4.179.944Zm2.665.948L7.131,1.6a.27.27,0,1,0-.381-.381l-.288.287a.27.27,0,1,0,.381.381Zm-5.337,0a.27.27,0,1,0,.381-.381L1.6,1.225a.27.27,0,1,0-.381.381ZM.674,3.926H.27a.27.27,0,1,0,0,.539h.4a.27.27,0,0,0,0-.539ZM6.85,6.476a.27.27,0,1,0-.381.381l.288.287a.27.27,0,1,0,.381-.381Zm-2.671.938a.27.27,0,0,0-.27.27v.4a.27.27,0,1,0,.539,0v-.4A.27.27,0,0,0,4.179,7.414Zm-2.673-.94-.288.287a.27.27,0,0,0,.381.381l.288-.287a.27.27,0,1,0-.381-.381ZM7.077,4.187A2.89,2.89,0,1,1,4.187,1.3,2.893,2.893,0,0,1,7.077,4.187Zm-.539,0a2.35,2.35,0,1,0-2.35,2.35A2.353,2.353,0,0,0,6.537,4.187Z" transform="translate(0.05 0.05)"/></svg>